<svg width="32" height="32" viewBox="0 0 32 32" fill="none" xmlns="http://www.w3.org/2000/svg">
<path d="M1.77783 7.84083V7.11127C1.77783 6.63978 1.96513 6.18759 2.29853 5.8542C2.63193 5.5208 3.08411 5.3335 3.55561 5.3335H28.4445C28.916 5.3335 29.3682 5.5208 29.7016 5.8542C30.035 6.18759 30.2223 6.63978 30.2223 7.11127V7.84083L16.0001 16.7297L1.77783 7.84083ZM16.4712 18.5319C16.3299 18.6201 16.1666 18.6669 16.0001 18.6669C15.8335 18.6669 15.6703 18.6201 15.5289 18.5319L1.77783 9.93727V24.8891C1.77783 25.3605 1.96513 25.8127 2.29853 26.1461C2.63193 26.4795 3.08411 26.6668 3.55561 26.6668H28.4445C28.916 26.6668 29.3682 26.4795 29.7016 26.1461C30.035 25.8127 30.2223 25.3605 30.2223 24.8891V9.93727L16.4712 18.5319Z" fill="white"/>
</svg>
