<svg width="32" height="32" viewBox="0 0 32 32" fill="none" xmlns="http://www.w3.org/2000/svg">
<path d="M23.1201 7.27984C22.8036 7.27984 22.4943 7.37368 22.2312 7.54949C21.9681 7.7253 21.763 7.97518 21.6419 8.26755C21.5208 8.55991 21.4891 8.88161 21.5508 9.19198C21.6126 9.50235 21.765 9.78745 21.9887 10.0112C22.2125 10.235 22.4976 10.3874 22.8079 10.4491C23.1183 10.5108 23.44 10.4791 23.7324 10.358C24.0247 10.2369 24.2746 10.0319 24.4504 9.76875C24.6262 9.50563 24.7201 9.19629 24.7201 8.87984C24.7201 8.45549 24.5515 8.04853 24.2515 7.74847C23.9514 7.44841 23.5444 7.27984 23.1201 7.27984ZM29.2534 10.5065C29.2275 9.40024 29.0203 8.30571 28.6401 7.26651C28.3011 6.37735 27.7734 5.57221 27.0934 4.9065C26.4332 4.22307 25.6262 3.69874 24.7334 3.37317C23.697 2.98139 22.6012 2.76945 21.4934 2.7465C20.0801 2.6665 19.6268 2.6665 16.0001 2.6665C12.3734 2.6665 11.9201 2.6665 10.5068 2.7465C9.39895 2.76945 8.30321 2.98139 7.26675 3.37317C6.37565 3.70204 5.56933 4.22592 4.90675 4.9065C4.22332 5.56674 3.69898 6.37376 3.37341 7.26651C2.98163 8.30296 2.76969 9.39871 2.74675 10.5065C2.66675 11.9198 2.66675 12.3732 2.66675 15.9998C2.66675 19.6265 2.66675 20.0798 2.74675 21.4932C2.76969 22.601 2.98163 23.6967 3.37341 24.7332C3.69898 25.6259 4.22332 26.4329 4.90675 27.0932C5.56933 27.7738 6.37565 28.2976 7.26675 28.6265C8.30321 29.0183 9.39895 29.2302 10.5068 29.2532C11.9201 29.3332 12.3734 29.3332 16.0001 29.3332C19.6268 29.3332 20.0801 29.3332 21.4934 29.2532C22.6012 29.2302 23.697 29.0183 24.7334 28.6265C25.6262 28.3009 26.4332 27.7766 27.0934 27.0932C27.7764 26.43 28.3045 25.6241 28.6401 24.7332C29.0203 23.694 29.2275 22.5994 29.2534 21.4932C29.2534 20.0798 29.3334 19.6265 29.3334 15.9998C29.3334 12.3732 29.3334 11.9198 29.2534 10.5065ZM26.8534 21.3332C26.8437 22.1795 26.6904 23.0181 26.4001 23.8132C26.1872 24.3934 25.8453 24.9177 25.4001 25.3465C24.9676 25.7872 24.4444 26.1284 23.8668 26.3465C23.0717 26.6368 22.2331 26.7901 21.3868 26.7998C20.0534 26.8665 19.5601 26.8798 16.0534 26.8798C12.5468 26.8798 12.0534 26.8798 10.7201 26.7998C9.84127 26.8163 8.96621 26.681 8.13342 26.3998C7.58113 26.1706 7.08189 25.8302 6.66675 25.3998C6.2242 24.9715 5.88654 24.4468 5.68008 23.8665C5.35456 23.06 5.17401 22.2024 5.14675 21.3332C5.14675 19.9998 5.06675 19.5065 5.06675 15.9998C5.06675 12.4932 5.06675 11.9998 5.14675 10.6665C5.15273 9.80125 5.31068 8.94377 5.61342 8.13317C5.84815 7.57039 6.20844 7.06872 6.66675 6.6665C7.07183 6.20806 7.57247 5.84397 8.13342 5.59984C8.94615 5.30656 9.80275 5.15328 10.6667 5.1465C12.0001 5.1465 12.4934 5.0665 16.0001 5.0665C19.5068 5.0665 20.0001 5.0665 21.3334 5.1465C22.1798 5.15621 23.0184 5.3095 23.8134 5.59984C24.4193 5.82471 24.9631 6.1903 25.4001 6.6665C25.837 7.07608 26.1784 7.57682 26.4001 8.13317C26.6964 8.94508 26.8498 9.80221 26.8534 10.6665C26.9201 11.9998 26.9334 12.4932 26.9334 15.9998C26.9334 19.5065 26.9201 19.9998 26.8534 21.3332ZM16.0001 9.15984C14.6478 9.16248 13.3267 9.56587 12.2036 10.3191C11.0805 11.0723 10.2059 12.1414 9.69026 13.3915C9.1746 14.6416 9.04105 16.0165 9.30648 17.3424C9.5719 18.6684 10.2244 19.8859 11.1815 20.8411C12.1386 21.7964 13.3574 22.4465 14.6839 22.7094C16.0104 22.9722 17.385 22.836 18.634 22.3179C19.8831 21.7998 20.9506 20.9231 21.7016 19.7986C22.4526 18.674 22.8534 17.3521 22.8534 15.9998C22.8552 15.1 22.679 14.2086 22.3351 13.3771C21.9911 12.5456 21.4862 11.7903 20.8492 11.1546C20.2123 10.5189 19.456 10.0154 18.6238 9.67308C17.7916 9.33075 16.8999 9.15632 16.0001 9.15984ZM16.0001 20.4398C15.1219 20.4398 14.2635 20.1794 13.5334 19.6916C12.8032 19.2037 12.2341 18.5103 11.8981 17.699C11.562 16.8877 11.4741 15.9949 11.6454 15.1336C11.8167 14.2724 12.2396 13.4812 12.8605 12.8603C13.4815 12.2393 14.2726 11.8165 15.1339 11.6452C15.9952 11.4738 16.8879 11.5618 17.6992 11.8978C18.5105 12.2339 19.2039 12.803 19.6918 13.5331C20.1797 14.2633 20.4401 15.1217 20.4401 15.9998C20.4401 16.5829 20.3252 17.1603 20.1021 17.699C19.879 18.2376 19.5519 18.7271 19.1396 19.1394C18.7273 19.5517 18.2379 19.8787 17.6992 20.1019C17.1605 20.325 16.5832 20.4398 16.0001 20.4398Z" fill="white"/>
</svg>
