<svg width="32" height="32" viewBox="0 0 32 32" fill="none" xmlns="http://www.w3.org/2000/svg">
<path d="M16.0155 2.49609C13.6872 2.49609 11.436 3.32982 9.6695 4.84637C7.90278 6.36285 6.73753 8.4616 6.38451 10.7631C6.03176 13.0643 6.5145 15.4158 7.74553 17.3922L16.0156 29.4882L24.2857 17.3922C25.5167 15.416 25.9994 13.0645 25.6467 10.7631C25.2937 8.4616 24.1284 6.36285 22.3617 4.84637C20.5952 3.32989 18.344 2.49609 16.0157 2.49609H16.0155ZM16.0155 15.8241C15.065 15.8241 14.1532 15.4466 13.4812 14.7744C12.809 14.1024 12.4315 13.1906 12.4315 12.2401C12.4315 11.2896 12.809 10.3778 13.4812 9.70582C14.1532 9.03357 15.065 8.65609 16.0155 8.65609C16.966 8.65609 17.8778 9.03359 18.5498 9.70582C19.222 10.3778 19.5995 11.2896 19.5995 12.2401C19.5995 13.1906 19.222 14.1024 18.5498 14.7744C17.8778 15.4466 16.966 15.8241 16.0155 15.8241Z" fill="white"/>
</svg>
