<svg width="32" height="32" viewBox="0 0 32 32" fill="none" xmlns="http://www.w3.org/2000/svg">
<path d="M23.0766 19.5782L20.7693 20.878C20.4924 21.0339 20.1721 21.0949 19.8572 21.0517C19.5424 21.0084 19.2504 20.8633 19.0258 20.6386L11.3248 12.9376C11.1002 12.7129 10.9553 12.4209 10.9121 12.1061C10.8688 11.7914 10.9297 11.4711 11.0854 11.1942L12.3853 8.88686C12.6192 8.47159 12.7108 7.99115 12.6461 7.51892C12.5813 7.04669 12.3638 6.60864 12.0266 6.27169L8.56843 2.81348C8.36574 2.61069 8.12509 2.44983 7.86021 2.34007C7.59533 2.23032 7.31143 2.17383 7.02471 2.17383C6.73799 2.17383 6.45409 2.23032 6.18921 2.34007C5.92433 2.44983 5.68367 2.61069 5.48099 2.81348L3.91078 4.38258C2.99257 5.30078 2.40769 6.49959 2.24914 7.7884C2.09058 9.07722 2.36746 10.382 3.03574 11.4954L3.82361 12.8085C7.84704 19.5141 13.526 25.0734 20.3157 28.9531L20.4713 29.0424C22.7908 30.3677 25.6564 29.9815 27.5135 28.1255L29.1533 26.4858C29.356 26.2831 29.5169 26.0424 29.6267 25.7775C29.7364 25.5127 29.7929 25.2287 29.7929 24.942C29.7929 24.6553 29.7364 24.3714 29.6267 24.1065C29.5169 23.8417 29.356 23.601 29.1533 23.3983L25.6928 19.9379C25.3559 19.6003 24.9178 19.3824 24.4453 19.3174C23.9728 19.2525 23.4921 19.3441 23.0766 19.5782Z" fill="white"/>
</svg>
