<svg width="124" height="52" viewBox="0 0 124 52" fill="none" xmlns="http://www.w3.org/2000/svg">
<g clip-path="url(#clip0_207_1086)">
<path d="M44.4193 20.4095L47.3598 20.4351L47.198 38.9799L44.2575 38.9542L44.4193 20.4095Z" fill="#E1FF2C"/>
<path d="M61.6983 39.1064L61.8601 20.5617L60.176 20.547L55.5953 30.7869L51.194 20.4686L49.5099 20.4539L49.3481 38.9987L52.2886 39.0243L52.3693 29.7784L54.6932 36.1309L56.404 36.1458L58.8384 29.8349L58.7578 39.0808L61.6983 39.1064Z" fill="#E1FF2C"/>
<path fill-rule="evenodd" clip-rule="evenodd" d="M66.8419 31.7329L68.3389 31.7459C69.622 31.7571 70.6588 31.4041 71.4493 30.6868C72.3475 29.8821 72.8031 28.7292 72.8162 27.2279L72.8338 25.2145C72.8467 23.7309 72.4112 22.579 71.5272 21.7588C70.7317 21.01 69.7013 20.6301 68.436 20.6191L63.9985 20.5803L63.8366 39.1251L66.7772 39.1508L66.8419 31.7329ZM66.9136 23.5202L68.4106 23.5333C68.9096 23.5376 69.274 23.6468 69.5038 23.8607C69.7688 24.128 69.8986 24.5707 69.8932 25.1889L69.8757 27.2023C69.8701 27.8381 69.7326 28.2785 69.4631 28.5234C69.2296 28.7333 68.8633 28.8361 68.3643 28.8318L66.8673 28.8187L66.9136 23.5202Z" fill="#E1FF2C"/>
<path d="M77.3412 28.2742L77.3819 23.6115L82.1937 23.6535L82.2191 20.7394L74.4668 20.6717L74.305 39.2165L82.0573 39.2841L82.0827 36.3699L77.2709 36.3279L77.3158 31.1884L80.6306 31.2173L80.656 28.3031L77.3412 28.2742Z" fill="#E1FF2C"/>
<path fill-rule="evenodd" clip-rule="evenodd" d="M92.6806 39.3768L89.6866 39.3507L88.2278 31.893L86.8912 31.8813L86.8262 39.3257L83.8857 39.3001L84.0475 20.7553L88.4851 20.794C89.7504 20.8051 90.7808 21.185 91.5763 21.9338C92.4603 22.754 92.8958 23.9059 92.8828 25.3895L92.8655 27.3764C92.8524 28.8777 92.3968 30.0306 91.4986 30.8353C91.3728 30.9578 91.2292 31.0714 91.0679 31.1759L92.6806 39.3768ZM89.9423 25.3638C89.9477 24.7457 89.8179 24.3029 89.5529 24.0357C89.3231 23.8217 88.9586 23.7126 88.4596 23.7082L86.9626 23.6952L86.9166 28.9672L88.4136 28.9802C88.9126 28.9846 89.2789 28.8818 89.5124 28.6719C89.7819 28.4269 89.9194 27.9866 89.925 27.3508L89.9423 25.3638Z" fill="#E1FF2C"/>
<path d="M94.6725 20.848L97.613 20.8737L97.4512 39.4185L94.5107 39.3928L94.6725 20.848Z" fill="#E1FF2C"/>
<path d="M103.903 39.6867C105.151 39.6976 106.188 39.3446 107.014 38.6276C107.912 37.7523 108.368 36.5993 108.381 35.1687L108.504 20.9687L105.564 20.9431L105.44 35.1431C105.434 35.7789 105.297 36.2193 105.027 36.4642C104.794 36.6741 104.428 36.7769 103.929 36.7725C103.412 36.768 103.039 36.6588 102.809 36.4448C102.561 36.2131 102.44 35.7704 102.446 35.1169L102.57 20.917L99.6294 20.8913L99.5055 35.0913C99.4927 36.5572 99.9282 37.7179 100.812 38.5735C101.59 39.3044 102.62 39.6755 103.903 39.6867Z" fill="#E1FF2C"/>
<path d="M122.707 39.6389L122.869 21.0941L121.185 21.0794L116.604 31.3193L112.203 21.001L110.519 20.9863L110.357 39.5311L113.297 39.5567L113.378 30.3109L115.702 36.6633L117.413 36.6783L119.847 30.3673L119.766 39.6132L122.707 39.6389Z" fill="#E1FF2C"/>
<path fill-rule="evenodd" clip-rule="evenodd" d="M60.6344 47.7258C60.6288 48.3658 60.4827 48.9274 60.1959 49.4106C59.915 49.8882 59.5081 50.259 58.9753 50.5229C58.4425 50.7868 57.8158 50.9156 57.095 50.9094C56.4032 50.9033 55.7931 50.7723 55.2648 50.5162C54.7424 50.2545 54.3363 49.8795 54.0465 49.3913C53.7624 48.903 53.6233 48.3275 53.6291 47.6647C53.6346 47.0247 53.7779 46.4659 54.0588 45.9884C54.3456 45.5051 54.7554 45.1316 55.2882 44.8676C55.821 44.6037 56.4477 44.4749 57.1684 44.4812C57.8603 44.4872 58.4675 44.6211 58.9899 44.8828C59.5182 45.1388 59.9243 45.511 60.2084 45.9992C60.4982 46.4874 60.6402 47.063 60.6344 47.7258ZM59.5015 47.7159C59.5078 46.9903 59.3052 46.4228 58.8936 46.0134C58.4877 45.6042 57.9101 45.3963 57.1605 45.3897C56.411 45.3832 55.824 45.5809 55.3995 45.9829C54.9809 46.385 54.7684 46.9489 54.762 47.6746C54.7557 48.4003 54.9554 48.9677 55.3613 49.377C55.7729 49.7863 56.3534 49.9943 57.103 50.0008C57.8525 50.0074 58.4366 49.8096 58.8553 49.4075C59.2797 49.0055 59.4951 48.4416 59.5015 47.7159Z" fill="#E1FF2C"/>
<path d="M50.4949 50.6975L50.5349 46.1205L48.2809 50.6781L47.3987 50.6704L45.2157 46.1084L45.176 50.651L44.1555 50.6421L44.2089 44.5224L45.5235 44.5338L47.8759 49.5088L50.3148 44.5757L51.5862 44.5868L51.5328 50.7065L50.4949 50.6975Z" fill="#E1FF2C"/>
<path d="M64.2751 45.6147L64.2297 50.8173L65.3281 50.8269L65.3735 45.6242L67.8643 45.646L67.8723 44.7289L61.7923 44.6758L61.7843 45.5929L64.2751 45.6147Z" fill="#E1FF2C"/>
<path d="M74.3459 44.7854L75.4443 44.795L75.4128 48.4034C75.405 49.2948 75.1541 49.9612 74.6601 50.4026C74.172 50.8384 73.4378 51.052 72.4576 51.0434C71.4775 51.0349 70.7442 50.8085 70.258 50.3642C69.7776 49.9143 69.5412 49.2436 69.549 48.3522L69.5805 44.7438L70.6789 44.7534L70.6469 48.4132C70.6418 48.9961 70.7851 49.4288 71.0767 49.7113C71.3741 49.9882 71.8371 50.1294 72.4656 50.1349C73.094 50.1404 73.5565 50.0073 73.8529 49.7355C74.1552 49.4582 74.3089 49.0281 74.3139 48.4452L74.3459 44.7854Z" fill="#E1FF2C"/>
<path d="M81.8056 45.9648C81.9543 46.109 82.0737 46.3014 82.1638 46.5422L83.2117 46.3971C83.1113 46.0019 82.9469 45.6805 82.7184 45.4327C82.4957 45.1851 82.1975 44.9996 81.8237 44.8763C81.45 44.7531 80.9864 44.689 80.4329 44.6842C79.5334 44.6763 78.8315 44.8245 78.3272 45.1287C77.8287 45.4272 77.5771 45.8508 77.5723 46.3993C77.5693 46.7479 77.6417 47.0428 77.7895 47.2841C77.9373 47.5197 78.1778 47.7132 78.5109 47.8647C78.8441 48.0162 79.2956 48.1373 79.8657 48.228L80.9713 48.4005C81.4032 48.4671 81.7194 48.5727 81.92 48.7173C82.1263 48.862 82.2283 49.06 82.2262 49.3115C82.2235 49.6143 82.0716 49.8473 81.7703 50.0104C81.4748 50.1735 81.0474 50.2526 80.4881 50.2478C79.8654 50.2423 79.3935 50.1439 79.0722 49.9525C78.7568 49.7555 78.5635 49.4452 78.4922 49.0217L77.3852 49.0121C77.4655 49.7214 77.755 50.2468 78.2536 50.5883C78.7581 50.9298 79.5004 51.1049 80.4806 51.1134C81.38 51.1213 82.0791 50.9702 82.5777 50.6603C83.0821 50.3447 83.3368 49.8983 83.3418 49.3212C83.3463 48.8069 83.1797 48.4026 82.8421 48.1082C82.5103 47.8082 81.9845 47.6007 81.2647 47.4859L79.9864 47.2861C79.4912 47.2075 79.1432 47.1016 78.9426 46.9684C78.7477 46.8353 78.6514 46.6402 78.6536 46.383C78.656 46.1087 78.8106 45.9015 79.1175 45.7613C79.4243 45.6154 79.8545 45.5449 80.408 45.5497C80.7424 45.5526 81.0218 45.5865 81.2461 45.6513C81.4704 45.7162 81.6569 45.8206 81.8056 45.9648Z" fill="#E1FF2C"/>
<path fill-rule="evenodd" clip-rule="evenodd" d="M24.1183 31.037L32.2201 26.4434L24.8825 0.699836L16.192 29.5795L8.0348 0.727374L0.248378 26.2146L8.26782 30.9813L8.26912 30.982L10.9131 32.5099L9.71371 29.0498L3.10581 25.1221L7.94511 9.28165L14.6283 32.9201L12.8673 36.0762L16.0444 38.8838L19.27 36.1321L17.6508 33.1074L24.8197 9.28454L29.3828 25.2942L22.7191 29.0724L21.0521 32.7138L24.1183 31.037Z" fill="#E1FF2C"/>
</g>
<defs>
<clipPath id="clip0_207_1086">
<rect width="122.619" height="50" fill="white" transform="translate(0.436279 0.465942) rotate(0.5)"/>
</clipPath>
</defs>
</svg>
