<svg width="82" height="33" viewBox="0 0 82 33" fill="none" xmlns="http://www.w3.org/2000/svg">
<path d="M0.5 0.5H3.53613V19.8208H0.5V0.5Z" fill="#E1FF2C"/>
<path d="M18.5078 19.8208V0.5H16.769L12.132 11.2093L7.49496 0.5H5.75609V19.8208H8.79222V10.188L11.2487 16.7847H13.0152L15.4717 10.188V19.8208H18.5078Z" fill="#E1FF2C"/>
<path fill-rule="evenodd" clip-rule="evenodd" d="M23.7518 12.0925H25.2975C26.6224 12.0925 27.6896 11.7153 28.4993 10.9609C29.4193 10.1144 29.8793 8.90916 29.8793 7.3451V5.24741C29.8793 3.70174 29.4193 2.50569 28.4993 1.65925C27.6712 0.886417 26.604 0.5 25.2975 0.5H20.7157V19.8208H23.7518V12.0925ZM23.7518 3.53613H25.2975C25.8127 3.53613 26.1899 3.64654 26.4292 3.86735C26.7052 4.14336 26.8432 4.60338 26.8432 5.24741V7.3451C26.8432 8.00752 26.7052 8.46754 26.4292 8.72516C26.1899 8.94597 25.8127 9.05637 25.2975 9.05637H23.7518V3.53613Z" fill="#E1FF2C"/>
<path d="M34.5605 8.39394V3.53613H39.5287V0.5H31.5244V19.8208H39.5287V16.7847H34.5605V11.4301H37.9831V8.39394H34.5605Z" fill="#E1FF2C"/>
<path fill-rule="evenodd" clip-rule="evenodd" d="M50.4974 19.8208H47.4061L45.8328 12.0649H44.4527V19.8208H41.4166V0.5H45.9984C47.3049 0.5 48.3721 0.886417 49.2001 1.65925C50.1202 2.50569 50.5802 3.70174 50.5802 5.24741V7.3175C50.5802 8.88156 50.1202 10.0868 49.2001 10.9333C49.0713 11.0621 48.9241 11.1817 48.7585 11.2921L50.4974 19.8208ZM47.5441 5.24741C47.5441 4.60338 47.4061 4.14336 47.1301 3.86735C46.8908 3.64654 46.5136 3.53613 45.9984 3.53613H44.4527V9.02877H45.9984C46.5136 9.02877 46.8908 8.91836 47.1301 8.69755C47.4061 8.43994 47.5441 7.97992 47.5441 7.3175V5.24741Z" fill="#E1FF2C"/>
<path d="M52.387 0.5H55.4231V19.8208H52.387V0.5Z" fill="#E1FF2C"/>
<path d="M62.0869 20.0416C63.3749 20.0416 64.4422 19.6644 65.2886 18.91C66.2087 17.99 66.6687 16.7847 66.6687 15.2942V0.5H63.6325V15.2942C63.6325 15.9567 63.4945 16.4167 63.2185 16.6743C62.9793 16.8951 62.6021 17.0055 62.0869 17.0055C61.5533 17.0055 61.1668 16.8951 60.9276 16.6743C60.67 16.4351 60.5412 15.9751 60.5412 15.2942V0.5H57.5051V15.2942C57.5051 16.8215 57.9651 18.0268 58.8851 18.91C59.6948 19.6644 60.762 20.0416 62.0869 20.0416Z" fill="#E1FF2C"/>
<path d="M81.5 19.8208V0.5H79.7611L75.1241 11.2093L70.4871 0.5H68.7482V19.8208H71.7844V10.188L74.2409 16.7847H76.0074L78.4639 10.188V19.8208H81.5Z" fill="#E1FF2C"/>
<path fill-rule="evenodd" clip-rule="evenodd" d="M38.0841 28.8108C38.0841 29.4776 37.9382 30.064 37.6465 30.57C37.3608 31.0701 36.944 31.46 36.3963 31.7398C35.8486 32.0196 35.2027 32.1595 34.4586 32.1595C33.7442 32.1595 33.1131 32.0285 32.5655 31.7666C32.0237 31.4987 31.601 31.1117 31.2974 30.6057C30.9998 30.0997 30.8509 29.5014 30.8509 28.8108C30.8509 28.1441 30.9938 27.5607 31.2796 27.0606C31.5713 26.5546 31.991 26.1617 32.5387 25.8819C33.0864 25.6021 33.7323 25.4622 34.4764 25.4622C35.1908 25.4622 35.8189 25.5961 36.3606 25.864C36.9083 26.1259 37.331 26.5099 37.6286 27.0159C37.9323 27.522 38.0841 28.1203 38.0841 28.8108ZM36.9143 28.8108C36.9143 28.0548 36.7 27.4654 36.2713 27.0427C35.8486 26.6201 35.2503 26.4087 34.4764 26.4087C33.7025 26.4087 33.0983 26.6201 32.6637 27.0427C32.2351 27.4654 32.0207 28.0548 32.0207 28.8108C32.0207 29.5669 32.2321 30.1563 32.6548 30.5789C33.0834 31.0016 33.6847 31.213 34.4586 31.213C35.2325 31.213 35.8338 31.0016 36.2624 30.5789C36.697 30.1563 36.9143 29.5669 36.9143 28.8108Z" fill="#E1FF2C"/>
<path d="M27.6425 31.9988V27.2303L25.3565 31.9988H24.4456L22.1507 27.266V31.9988H21.0969V25.6229H22.4543L24.9278 30.7843L27.4014 25.6229H28.7141V31.9988H27.6425Z" fill="#E1FF2C"/>
<path d="M41.8238 26.5784V31.9988H42.9579V26.5784H45.5296V25.6229H39.252V26.5784H41.8238Z" fill="#E1FF2C"/>
<path d="M52.2137 25.6229H53.3478V29.3823C53.3478 30.311 53.0948 31.0076 52.5888 31.4719C52.0887 31.9303 51.3327 32.1595 50.3206 32.1595C49.3086 32.1595 48.5495 31.9303 48.0435 31.4719C47.5434 31.0076 47.2934 30.311 47.2934 29.3823V25.6229H48.4275V29.4359C48.4275 30.0431 48.5793 30.4926 48.8829 30.7843C49.1925 31.0701 49.6717 31.213 50.3206 31.213C50.9695 31.213 51.4458 31.0701 51.7494 30.7843C52.0589 30.4926 52.2137 30.0431 52.2137 29.4359V25.6229Z" fill="#E1FF2C"/>
<path d="M59.926 26.7838C60.0808 26.9326 60.2058 27.132 60.3011 27.3821L61.3816 27.2213C61.2744 26.8106 61.1018 26.4772 60.8636 26.2212C60.6315 25.9652 60.3219 25.7747 59.9349 25.6497C59.548 25.5247 59.0687 25.4622 58.4972 25.4622C57.5685 25.4622 56.8452 25.6229 56.3273 25.9444C55.8153 26.2599 55.5593 26.7034 55.5593 27.2749C55.5593 27.6381 55.6367 27.9446 55.7915 28.1947C55.9463 28.4388 56.1963 28.6382 56.5416 28.793C56.8869 28.9478 57.3542 29.0698 57.9436 29.1591L59.0866 29.3288C59.5331 29.3943 59.8605 29.5014 60.0689 29.6502C60.2832 29.7991 60.3904 30.0045 60.3904 30.2664C60.3904 30.5819 60.2356 30.826 59.926 30.9986C59.6224 31.1713 59.1819 31.2576 58.6044 31.2576C57.9614 31.2576 57.4733 31.1594 57.1399 30.9629C56.8125 30.7605 56.6101 30.439 56.5327 29.9985H55.3897C55.479 30.7367 55.7826 31.2814 56.3005 31.6327C56.8244 31.9839 57.5923 32.1595 58.6044 32.1595C59.5331 32.1595 60.2534 31.9958 60.7654 31.6684C61.2833 31.335 61.5423 30.8677 61.5423 30.2664C61.5423 29.7306 61.3667 29.3109 61.0154 29.0073C60.6702 28.6977 60.1254 28.4864 59.3813 28.3733L58.0597 28.1768C57.5477 28.0994 57.1875 27.9923 56.9792 27.8553C56.7768 27.7184 56.6756 27.516 56.6756 27.2481C56.6756 26.9624 56.8333 26.7451 57.1488 26.5962C57.4644 26.4415 57.9079 26.3641 58.4794 26.3641C58.8247 26.3641 59.1134 26.3968 59.3456 26.4623C59.5777 26.5278 59.7712 26.6349 59.926 26.7838Z" fill="#E1FF2C"/>
</svg>
