<svg width="148" height="62" viewBox="0 0 148 62" fill="none" xmlns="http://www.w3.org/2000/svg">
<g clip-path="url(#clip0_192_1188)">
<path d="M53.4727 23.9321L57.0013 23.9629L56.8071 46.2166L53.2785 46.1858L53.4727 23.9321Z" fill="white"/>
<path d="M74.2074 46.3685L74.4016 24.1148L72.3807 24.0971L66.8838 36.385L61.6023 24.0031L59.5814 23.9854L59.3872 46.2391L62.9158 46.2699L63.0126 35.1749L65.8013 42.7978L67.8543 42.8158L70.7756 35.2426L70.6788 46.3377L74.2074 46.3685Z" fill="white"/>
<path fill-rule="evenodd" clip-rule="evenodd" d="M80.3798 37.5202L82.1762 37.5359C83.7159 37.5493 84.9601 37.1256 85.9086 36.2649C86.9864 35.2993 87.5332 33.9158 87.5489 32.1143L87.57 29.6982C87.5855 27.9179 87.0629 26.5356 86.0021 25.5513C85.0476 24.6528 83.8111 24.1969 82.2927 24.1836L76.9677 24.1372L76.7735 46.3909L80.3021 46.4217L80.3798 37.5202ZM80.4658 27.665L82.2622 27.6806C82.861 27.6859 83.2983 27.8169 83.5741 28.0736C83.8921 28.3943 84.0478 28.9256 84.0414 29.6674L84.0203 32.0835C84.0136 32.8465 83.8486 33.3749 83.5252 33.6688C83.245 33.9207 82.8055 34.0441 82.2067 34.0388L80.4103 34.0232L80.4658 27.665Z" fill="white"/>
<path d="M92.9789 33.3698L93.0278 27.7746L98.8019 27.825L98.8324 24.328L89.5297 24.2468L89.3354 46.5005L98.6382 46.5817L98.6687 43.0847L92.8946 43.0343L92.9484 36.8668L96.9262 36.9015L96.9567 33.4045L92.9789 33.3698Z" fill="white"/>
<path fill-rule="evenodd" clip-rule="evenodd" d="M111.386 46.6929L107.793 46.6616L106.043 37.7123L104.439 37.6983L104.361 46.6316L100.832 46.6008L101.027 24.3471L106.352 24.3936C107.87 24.4068 109.106 24.8627 110.061 25.7613C111.122 26.7455 111.644 28.1278 111.629 29.9081L111.608 32.2924C111.592 34.0939 111.046 35.4775 109.968 36.4431C109.817 36.5901 109.645 36.7264 109.451 36.8519L111.386 46.6929ZM108.1 29.8773C108.107 29.1355 107.951 28.6043 107.633 28.2836C107.357 28.0268 106.92 27.8958 106.321 27.8906L104.525 27.8749L104.469 34.2013L106.266 34.217C106.865 34.2222 107.304 34.0989 107.584 33.847C107.908 33.5531 108.073 33.0246 108.079 32.2617L108.1 29.8773Z" fill="white"/>
<path d="M113.776 24.4584L117.305 24.4892L117.111 46.7429L113.582 46.7121L113.776 24.4584Z" fill="white"/>
<path d="M124.853 47.0648C126.35 47.0779 127.595 46.6542 128.586 45.7938C129.664 44.7435 130.211 43.3599 130.226 41.6432L130.375 24.6032L126.846 24.5725L126.698 41.6124C126.691 42.3754 126.526 42.9039 126.202 43.1978C125.922 43.4497 125.483 43.573 124.884 43.5678C124.264 43.5624 123.816 43.4313 123.54 43.1745C123.243 42.8964 123.098 42.3653 123.105 41.5811L123.253 24.5411L119.725 24.5103L119.576 41.5503C119.561 43.3094 120.083 44.7023 121.144 45.7289C122.077 46.6061 123.314 47.0514 124.853 47.0648Z" fill="white"/>
<path d="M147.418 47.0074L147.612 24.7537L145.591 24.736L140.094 37.0239L134.813 24.642L132.792 24.6243L132.598 46.878L136.126 46.9088L136.223 35.8138L139.012 43.4367L141.065 43.4547L143.986 35.8815L143.889 46.9766L147.418 47.0074Z" fill="white"/>
<path fill-rule="evenodd" clip-rule="evenodd" d="M72.9308 56.7117C72.9241 57.4797 72.7487 58.1536 72.4046 58.7335C72.0675 59.3066 71.5792 59.7515 70.9399 60.0682C70.3005 60.3849 69.5484 60.5395 68.6835 60.532C67.8533 60.5247 67.1212 60.3675 66.4873 60.0602C65.8604 59.7462 65.373 59.2962 65.0252 58.7103C64.6844 58.1244 64.5174 57.4338 64.5243 56.6384C64.5311 55.8704 64.703 55.1999 65.0401 54.6268C65.3842 54.0469 65.8759 53.5986 66.5153 53.2819C67.1546 52.9652 67.9068 52.8106 68.7716 52.8182C69.6019 52.8254 70.3305 52.986 70.9574 53.3001C71.5913 53.6074 72.0787 54.0539 72.4195 54.6398C72.7673 55.2257 72.9377 55.9163 72.9308 56.7117ZM71.5712 56.6999C71.5788 55.8291 71.3357 55.148 70.8418 54.6569C70.3548 54.1657 69.6616 53.9162 68.7621 53.9084C67.8626 53.9005 67.1583 54.1378 66.6489 54.6203C66.1465 55.1028 65.8915 55.7794 65.8839 56.6502C65.8763 57.5211 66.116 58.202 66.603 58.6932C67.0969 59.1844 67.7936 59.4339 68.6931 59.4417C69.5925 59.4496 70.2934 59.2123 70.7959 58.7298C71.3052 58.2473 71.5636 57.5707 71.5712 56.6999Z" fill="white"/>
<path d="M60.7634 60.2777L60.8113 54.7853L58.1065 60.2545L57.048 60.2453L54.4283 54.7708L54.3807 60.222L53.1561 60.2113L53.2202 52.8676L54.7977 52.8814L57.6206 58.8514L60.5473 52.9315L62.0729 52.9448L62.0088 60.2886L60.7634 60.2777Z" fill="white"/>
<path d="M77.2996 54.1783L77.2451 60.4215L78.5631 60.433L78.6176 54.1898L81.6066 54.2159L81.6162 53.1154L74.3202 53.0517L74.3106 54.1523L77.2996 54.1783Z" fill="white"/>
<path d="M89.3845 53.1832L90.7026 53.1947L90.6648 57.5248C90.6555 58.5945 90.3544 59.3942 89.7616 59.9239C89.1759 60.4468 88.2948 60.7031 87.1186 60.6928C85.9424 60.6826 85.0626 60.4109 84.4791 59.8778C83.9025 59.3379 83.619 58.5331 83.6283 57.4634L83.6661 53.1333L84.9841 53.1448L84.9458 57.5366C84.9397 58.236 85.1116 58.7553 85.4615 59.0943C85.8185 59.4266 86.374 59.596 87.1282 59.6026C87.8823 59.6092 88.4373 59.4495 88.793 59.1234C89.1557 58.7906 89.3401 58.2744 89.3462 57.575L89.3845 53.1832Z" fill="white"/>
<path d="M98.3362 54.5985C98.5146 54.7715 98.6579 55.0025 98.7661 55.2914L100.023 55.1172C99.9031 54.643 99.7058 54.2573 99.4316 53.96C99.1643 53.6628 98.8065 53.4403 98.358 53.2924C97.9095 53.1444 97.3532 53.0676 96.6889 53.0618C95.6096 53.0524 94.7673 53.2302 94.1622 53.5952C93.564 53.9534 93.262 54.4616 93.2563 55.1199C93.2526 55.5382 93.3395 55.8921 93.5168 56.1817C93.6943 56.4644 93.9829 56.6966 94.3826 56.8784C94.7823 57.0602 95.3243 57.2055 96.0083 57.3143L97.3351 57.5213C97.8533 57.6013 98.2328 57.728 98.4734 57.9015C98.721 58.0751 98.8435 58.3128 98.8409 58.6145C98.8377 58.9779 98.6554 59.2575 98.2938 59.4532C97.9392 59.6489 97.4264 59.7439 96.7552 59.738C96.008 59.7315 95.4416 59.6134 95.0562 59.3838C94.6776 59.1473 94.4456 58.775 94.3601 58.2668L93.0317 58.2552C93.128 59.1064 93.4754 59.7369 94.0739 60.1467C94.6792 60.5565 95.57 60.7666 96.7462 60.7769C97.8255 60.7863 98.6644 60.605 99.2627 60.2331C99.868 59.8544 100.174 59.3187 100.18 58.6262C100.185 58.0091 99.9852 57.5239 99.58 57.1706C99.1818 56.8105 98.5509 56.5616 97.6871 56.4238L96.1531 56.1841C95.5589 56.0898 95.1414 55.9627 94.9006 55.8029C94.6667 55.6431 94.5511 55.4089 94.5538 55.1004C94.5567 54.7712 94.7422 54.5226 95.1104 54.3543C95.4787 54.1793 95.9949 54.0946 96.6591 54.1004C97.0604 54.1039 97.3957 54.1446 97.6648 54.2223C97.934 54.3001 98.1578 54.4255 98.3362 54.5985Z" fill="white"/>
<path fill-rule="evenodd" clip-rule="evenodd" d="M29.1114 36.6851L38.8335 31.1728L30.0285 0.280526L19.5998 34.9361L9.81122 0.313572L0.467511 30.8982L10.0908 36.6183L10.0924 36.6192L13.2652 38.4526L11.8259 34.3004L3.89643 29.5872L9.70359 10.5787L17.7234 38.9449L15.6102 42.7321L19.4227 46.1012L23.2934 42.7992L21.3505 39.1696L29.9531 10.5822L35.4289 29.7937L27.4324 34.3276L25.432 38.6973L29.1114 36.6851Z" fill="white"/>
</g>
<defs>
<clipPath id="clip0_192_1188">
<rect width="147.143" height="60" fill="white" transform="translate(0.693115) rotate(0.5)"/>
</clipPath>
</defs>
</svg>
