<svg width="32" height="32" viewBox="0 0 32 32" fill="none" xmlns="http://www.w3.org/2000/svg">
<path d="M6.94574 28C5.04393 28 3.39018 27.3503 1.9845 26.0508C0.661499 24.6701 0 23.0457 0 21.1777C0 19.3909 0.661499 17.2792 1.9845 14.8426C2.89406 13.1371 4.13437 11.1066 5.70543 8.75128C7.35917 6.31472 8.47545 4.73096 9.05426 4H13.0233C12.8579 4.48731 12.4858 5.46193 11.907 6.92386C11.4109 8.30457 10.832 9.7665 10.1705 11.3096C9.92248 11.797 9.79845 12.4061 9.79845 13.1371C9.79845 13.9492 10.1292 14.6802 10.7907 15.3299C12.8579 16.9543 13.8915 18.9036 13.8915 21.1777C13.8915 23.0457 13.1886 24.6701 11.7829 26.0508C10.4599 27.3503 8.84755 28 6.94574 28ZM25.0543 28C23.1525 28 21.4987 27.3503 20.093 26.0508C18.77 24.6701 18.1085 23.0457 18.1085 21.1777C18.1085 19.3909 18.77 17.2792 20.093 14.8426C21.0026 13.1371 22.2429 11.1066 23.814 8.75128C25.4677 6.31472 26.584 4.73096 27.1628 4H31.1318C30.9664 4.48731 30.5943 5.46193 30.0155 6.92386C29.5194 8.30457 28.9406 9.7665 28.2791 11.3096C28.031 11.797 27.907 12.4061 27.907 13.1371C27.907 13.9492 28.2377 14.6802 28.8992 15.3299C30.9664 16.9543 32 18.9036 32 21.1777C32 23.0457 31.2972 24.6701 29.8915 26.0508C28.5685 27.3503 26.9561 28 25.0543 28Z" fill="#131313"/>
</svg>
