<svg width="432" height="66" viewBox="0 0 432 66" fill="none" xmlns="http://www.w3.org/2000/svg">
<path fill-rule="evenodd" clip-rule="evenodd" d="M210.049 0C205.617 0 201.948 1.26762 199.142 3.88235L199.137 3.88742L199.131 3.89257C195.958 6.9385 194.416 11.0693 194.416 16.161V48.9512C194.416 54.0429 195.958 58.1737 199.131 61.2196L199.137 61.2248L199.142 61.2298C201.948 63.8446 205.617 65.1122 210.049 65.1122C214.48 65.1122 218.149 63.8446 220.955 61.2298L220.961 61.2248L220.966 61.2196C224.139 58.1737 225.681 54.0429 225.681 48.9512V16.161C225.681 11.0693 224.139 6.9385 220.966 3.89257L220.961 3.88742L220.955 3.88235C218.149 1.26762 214.48 0 210.049 0ZM196.416 16.161C196.416 11.5011 197.811 7.93557 200.511 5.34062C202.875 3.13999 206.021 2 210.049 2C214.076 2 217.222 3.13999 219.586 5.34062C222.286 7.93557 223.681 11.5011 223.681 16.161V48.9512C223.681 53.611 222.286 57.1766 219.587 59.7715C217.222 61.9722 214.076 63.1122 210.049 63.1122C206.021 63.1122 202.875 61.9722 200.511 59.7715C197.811 57.1766 196.416 53.611 196.416 48.9512V16.161ZM1.41162 0.70516H0.411621V1.70516V63.407V64.407H1.41162H11.1076H12.1076V63.407V1.70516V0.70516H11.1076H1.41162ZM2.41162 62.407V2.70516H10.1076V62.407H2.41162ZM18.1971 0.70516H17.1971V1.70516V63.407V64.407H18.1971H43.7593H44.7593V63.407V53.711V52.711H43.7593H28.8932V1.70516V0.70516H27.8932H18.1971ZM19.1971 62.407V2.70516H26.8932V53.711V54.711H27.8932H42.7593V62.407H19.1971ZM62.0977 0.70516H61.0977V1.70516V63.407V64.407H62.0977H71.7937H72.7937V63.407V39.7263H76.7299C81.1597 39.7263 84.8282 38.4594 87.6339 35.8463C90.826 32.9084 92.3621 28.7635 92.3621 23.5653V16.8662C92.3621 11.7226 90.8236 7.60907 87.6341 4.67346C84.7767 2.00794 81.1122 0.70516 76.7299 0.70516H62.0977ZM76.7299 2.70516H63.0977V62.407H70.7937V38.7263V37.7263H71.7937H76.7299C80.7607 37.7263 83.9079 36.5846 86.2731 34.3807L86.2777 34.3764C88.9606 31.9081 90.3621 28.3556 90.3621 23.5653V16.8662C90.3621 12.1387 88.9631 8.61371 86.2777 6.1432L86.2725 6.13833C83.8416 3.86955 80.6905 2.70516 76.7299 2.70516ZM96.6157 0.70516H95.6157V1.70516V63.407V64.407H96.6157H106.312H107.312V63.407V39.6381H109.901L114.763 63.6058L114.926 64.407H115.743H125.616H126.84L126.595 63.2072L121.172 36.6074C121.528 36.3368 121.86 36.0499 122.165 35.7461C125.348 32.8089 126.88 28.6683 126.88 23.4771V16.8662C126.88 11.7226 125.342 7.60907 122.152 4.67346C119.295 2.00794 115.63 0.70516 111.248 0.70516H96.6157ZM111.248 2.70516H97.6157V62.407H105.312V38.6381V37.6381H106.312H110.719H111.536L111.699 38.4393L116.561 62.407H124.391L119.083 36.3698L118.948 35.711L119.508 35.338C119.987 35.0186 120.405 34.6778 120.766 34.3171L120.78 34.3023L120.796 34.2882C123.479 31.82 124.88 28.2675 124.88 23.4771V16.8662C124.88 12.1387 123.481 8.61371 120.796 6.1432L120.79 6.13833C118.36 3.86955 115.208 2.70516 111.248 2.70516ZM131.65 0.70516H130.65V1.70516V63.407V64.407H131.65H141.346H142.346V63.407V1.70516V0.70516H141.346H131.65ZM132.65 62.407V2.70516H140.346V62.407H132.65ZM148.436 0.70516H147.436V1.70516V63.407V64.407H148.436H158.132H159.132V63.407V38.1952L165.039 54.06L165.282 54.711H165.977H171.618H172.313L172.555 54.06L178.463 38.1952V63.407V64.407H179.463H189.159H190.159V63.407V1.70516V0.70516H189.159H183.606H182.949L182.688 1.30782L168.797 33.3889L154.906 1.30782L154.645 0.70516H153.989H148.436ZM149.436 62.407V2.70516H153.332L167.88 36.303L168.797 38.4223L169.715 36.303L184.262 2.70516H188.159V62.407H180.463V32.6442L178.526 32.2953L170.923 52.711H166.671L159.069 32.2953L157.132 32.6442V62.407H149.436ZM207.115 12.4871C207.612 12.0289 208.516 11.696 210.049 11.696C211.663 11.696 212.533 12.0388 212.955 12.4609L212.981 12.4861L213.008 12.5094C213.541 12.9721 213.985 14.0467 213.985 16.161V48.9512C213.985 51.0655 213.541 52.1401 213.008 52.6027L212.981 52.6261L212.955 52.6513C212.533 53.0733 211.663 53.4162 210.049 53.4162C208.516 53.4162 207.611 53.0831 207.114 52.6247C206.545 52.0913 206.112 50.9813 206.112 48.9512V16.161C206.112 14.1303 206.545 13.0203 207.115 12.4871ZM210.049 9.696C208.292 9.696 206.787 10.0676 205.756 11.0189L205.752 11.0227C204.56 12.1358 204.112 13.9636 204.112 16.161V48.9512C204.112 51.1485 204.56 52.9764 205.752 54.0895L205.756 54.0932C206.787 55.0446 208.292 55.4162 210.049 55.4162C211.827 55.4162 213.355 55.06 214.344 54.0906C215.553 53.0216 215.985 51.169 215.985 48.9512V16.161C215.985 13.9432 215.553 12.0906 214.344 11.0216C213.355 10.0522 211.827 9.696 210.049 9.696ZM71.7937 10.4012H70.7937V11.4012V29.0303V30.0303H71.7937H76.7299C78.4867 30.0303 79.9915 29.6587 81.0221 28.7073L81.0262 28.7036C82.2188 27.5905 82.666 25.7626 82.666 23.5653V16.8662C82.666 14.708 82.2105 12.9113 81.051 11.7518L81.0368 11.7377L81.0221 11.7241C79.9915 10.7727 78.4867 10.4012 76.7299 10.4012H71.7937ZM72.7937 28.0303V12.4012H76.7299C78.249 12.4012 79.1508 12.7283 79.651 13.1804C80.2468 13.7875 80.666 14.9264 80.666 16.8662V23.5653C80.666 25.5962 80.233 26.7063 79.6638 27.2394C79.1662 27.6975 78.262 28.0303 76.7299 28.0303H72.7937ZM106.312 10.4012H105.312V11.4012V28.9421V29.9421H106.312H111.248C113.005 29.9421 114.509 29.5706 115.54 28.6192L115.544 28.6154C116.737 27.5024 117.184 25.6745 117.184 23.4771V16.8662C117.184 14.708 116.728 12.9113 115.569 11.7518L115.555 11.7377L115.54 11.7241C114.509 10.7727 113.005 10.4012 111.248 10.4012H106.312ZM107.312 27.9421V12.4012H111.248C112.767 12.4012 113.669 12.7283 114.169 13.1804C114.765 13.7875 115.184 14.9264 115.184 16.8662V23.4771C115.184 25.5081 114.751 26.6181 114.182 27.1512C113.684 27.6093 112.78 27.9421 111.248 27.9421H107.312ZM274.361 60.4982C271.775 62.9075 268.367 64.1122 264.136 64.1122C259.905 64.1122 256.496 62.9075 253.911 60.4982C250.973 57.6776 249.503 53.8285 249.503 48.9512V40.9299H259.199V48.9512C259.199 51.0667 259.64 52.5357 260.522 53.3584C261.286 54.0636 262.49 54.4162 264.136 54.4162C265.84 54.4162 267.044 54.0636 267.75 53.3584C268.631 52.5945 269.072 51.1254 269.072 48.9512V45.0728C269.072 42.3696 267.985 40.0191 265.81 38.0211C265.34 37.6098 264.106 36.8458 262.108 35.7293C259.346 34.2602 257.319 32.9674 256.026 31.8509C253.911 29.9705 252.295 27.8256 251.178 25.4163C250.062 23.007 249.503 20.4214 249.503 17.6595V16.161C249.503 11.2836 250.973 7.43462 253.911 4.61396C256.496 2.20465 259.905 1 264.136 1C268.367 1 271.775 2.20465 274.361 4.61396C277.299 7.43462 278.768 11.2836 278.768 16.161V21.5379H269.072V16.161C269.072 13.9868 268.631 12.5177 267.75 11.7538C267.044 11.0486 265.84 10.696 264.136 10.696C262.49 10.696 261.286 11.0486 260.522 11.7538C259.64 12.5764 259.199 14.0455 259.199 16.161V17.6595C259.199 20.3626 260.287 22.6838 262.461 24.623C263.049 25.0931 264.194 25.7983 265.899 26.7385C268.954 28.3839 271.07 29.7354 272.245 30.7932C276.594 34.6716 278.768 39.4314 278.768 45.0728V48.9512C278.768 53.8285 277.299 57.6776 274.361 60.4982ZM301.323 11.4012H311.195V1.70516H281.754V11.4012H291.627V63.407H301.323V11.4012ZM339.89 60.4982C337.187 62.9075 333.778 64.1122 329.665 64.1122C325.434 64.1122 322.026 62.9075 319.44 60.4982C316.502 57.6776 315.033 53.8285 315.033 48.9512V1.70516H324.729V48.9512C324.729 51.1254 325.14 52.5945 325.963 53.3584C326.727 54.0636 327.961 54.4162 329.665 54.4162C331.31 54.4162 332.515 54.0636 333.279 53.3584C334.16 52.5357 334.601 51.0667 334.601 48.9512V1.70516H344.297V48.9512C344.297 53.711 342.828 57.56 339.89 60.4982ZM375.707 59.9693C373.18 62.2611 369.801 63.407 365.57 63.407H350.938V1.70516H365.57C369.743 1.70516 373.151 2.9392 375.795 5.40727C378.734 8.1104 380.203 11.93 380.203 16.8662V48.5986C380.203 51.0079 379.85 53.1528 379.145 55.0332C378.322 57.0312 377.176 58.6765 375.707 59.9693ZM365.57 11.4012H360.634V53.711H365.57C367.333 53.711 368.567 53.3878 369.273 52.7414C370.095 52.0363 370.507 50.6553 370.507 48.5986V16.8662C370.507 14.8095 370.066 13.3404 369.184 12.4589C368.421 11.7538 367.216 11.4012 365.57 11.4012ZM386.489 1.70516H396.185V63.407H386.489V1.70516ZM427.338 60.4982C424.753 62.9075 421.345 64.1122 417.114 64.1122C412.883 64.1122 409.474 62.9075 406.889 60.4982C403.951 57.6776 402.481 53.8285 402.481 48.9512V16.161C402.481 11.2836 403.951 7.43462 406.889 4.61396C409.474 2.20465 412.883 1 417.114 1C421.345 1 424.753 2.20465 427.338 4.61396C430.277 7.43462 431.746 11.2836 431.746 16.161V48.9512C431.746 53.8285 430.277 57.6776 427.338 60.4982ZM420.728 11.7538C420.022 11.0486 418.818 10.696 417.114 10.696C415.468 10.696 414.264 11.0486 413.5 11.7538C412.618 12.5764 412.177 14.0455 412.177 16.161V48.9512C412.177 51.0667 412.618 52.5357 413.5 53.3584C414.264 54.0636 415.468 54.4162 417.114 54.4162C418.818 54.4162 420.022 54.0636 420.728 53.3584C421.609 52.5945 422.05 51.1254 422.05 48.9512V16.161C422.05 13.9868 421.609 12.5177 420.728 11.7538Z" fill="white"/>
</svg>
