<svg width="217" height="64" viewBox="0 0 217 64" fill="none" xmlns="http://www.w3.org/2000/svg">
<path fill-rule="evenodd" clip-rule="evenodd" d="M20.1573 21.1403H18.1874L14.1034 44.4375H24.2413L20.1573 21.1403ZM19.1723 27.1045L21.8602 42.4375H16.4845L19.1723 27.1045Z" fill="white"/>
<path fill-rule="evenodd" clip-rule="evenodd" d="M24.8401 0.21582H13.5045L0.76416 63.9177H12.6922L14.4551 54.1335H23.8896L25.6525 63.9177H37.5805L24.8401 0.21582ZM3.20377 61.9177L15.1441 2.21582H23.2005L35.1409 61.9177H27.3243L25.5614 52.1335H12.7832L11.0203 61.9177H3.20377Z" fill="white"/>
<path d="M145.874 60.009C143.288 62.4183 139.88 63.6229 135.649 63.6229C131.536 63.6229 128.127 62.4183 125.424 60.009C122.486 57.0708 121.017 53.2218 121.017 48.4619V15.6718C121.017 10.9119 122.486 7.06289 125.424 4.1247C128.127 1.7154 131.536 0.510742 135.649 0.510742C139.88 0.510742 143.288 1.7154 145.874 4.1247C148.812 6.94536 150.281 10.7944 150.281 15.6718V21.1368H140.585V15.6718C140.585 13.4975 140.174 12.0284 139.351 11.2645C138.587 10.5593 137.353 10.2067 135.649 10.2067C134.004 10.2067 132.799 10.5593 132.035 11.2645C131.154 12.0872 130.713 13.5563 130.713 15.6718V48.4619C130.713 50.5774 131.154 52.0465 132.035 52.8692C132.799 53.5743 134.004 53.9269 135.649 53.9269C137.353 53.9269 138.587 53.5743 139.351 52.8692C140.174 52.1052 140.585 50.6362 140.585 48.4619V40.5288H150.281V48.4619C150.281 53.3393 148.812 57.1883 145.874 60.009Z" fill="white"/>
<path d="M86.4282 53.2218H70.562V1.2159H60.866V62.9178H86.4282V53.2218Z" fill="white"/>
<path d="M100.776 10.9119V26.4255H111.706V36.1215H100.776V53.2218H116.642V62.9178H91.0799V1.2159H116.642V10.9119H100.776Z" fill="white"/>
<path d="M170.167 63.6229C174.398 63.6229 177.806 62.4183 180.392 60.009C183.33 57.1883 184.799 53.3393 184.799 48.4619V40.5288H175.103V48.4619C175.103 50.6362 174.692 52.1052 173.869 52.8692C173.105 53.5743 171.871 53.9269 170.167 53.9269C168.522 53.9269 167.317 53.5743 166.553 52.8692C165.672 52.0465 165.231 50.5774 165.231 48.4619V15.6718C165.231 13.5563 165.672 12.0872 166.553 11.2645C167.317 10.5593 168.522 10.2067 170.167 10.2067C171.871 10.2067 173.105 10.5593 173.869 11.2645C174.692 12.0284 175.103 13.4975 175.103 15.6718V21.1368H184.799V15.6718C184.799 10.7944 183.33 6.94536 180.392 4.1247C177.806 1.7154 174.398 0.510742 170.167 0.510742C166.054 0.510742 162.645 1.7154 159.942 4.1247C157.004 7.06289 155.535 10.9119 155.535 15.6718V48.4619C155.535 53.2218 157.004 57.0708 159.942 60.009C162.645 62.4183 166.054 63.6229 170.167 63.6229Z" fill="white"/>
<path d="M200.37 26.4255V10.9119H216.236V1.2159H190.674V62.9178H216.236V53.2218H200.37V36.1215H211.3V26.4255H200.37Z" fill="white"/>
</svg>
